<svg xmlns="http://www.w3.org/2000/svg" viewBox="0 0 902.28 931.64"><defs><style>.cls-1{fill:none;stroke:#000;stroke-miterlimit:10;stroke-width:6px;}</style></defs><title>Asset 4</title><g id="Layer_2" data-name="Layer 2"><g id="Layer_44" data-name="Layer 44"><path d="M175.82,494.2q-51-50.3-51-120.72,0-69.74,51-120.72,49.63-50.3,120.72-50.3,69.75,0,131.46,60.36l66.4-63.71q-89.88-88.53-197.85-88.53-108.65,0-186.44,77.8-76.46,76.45-76.46,185.1,0,109.33,76.46,185.78,50,50,113.57,67.52l82.12-82.12c-3.08.18-6.14.51-9.24.51Q226.12,545.17,175.82,494.2Z"/><path d="M690.78,647.28q-18.78-3.35-36.22-7t-36.21-7.71q-18.79-4-36.89-7.71t-36.22-7.71q-66.4-14.74-66.4-57.68,0-29.51,32.19-46.95,29.5-14.74,68.41-14.75,40.9,0,69.08,15.43,32.2,17.45,32.19,63h91.21q0-89.86-65.05-132.79-55.68-37.55-127.43-37.56a252,252,0,0,0-27.79,1.65L387.37,571.77q5.53,86.45,90.14,118.43,18.11,4,37.56,8.72t38.23,8l-.67-.67q18.77,4,37.22,8t36.55,7.38V721q65.72,15.43,65.73,55.67,0,32.86-36.22,49.63-30.18,14.08-76.46,14.08-44.94,0-76.46-14.75l.67.67q-36.9-17.44-36.89-65.73H375.57q0,92.55,71.09,135.48Q503,931.63,579.45,931.64q75.78,0,133.47-34.88Q784,851.84,784,776.72,784,682.15,690.78,647.28Z"/><line class="cls-1" x1="246.3" y1="599.94" x2="722.81" y2="123.44"/><path class="cls-1" d="M552.56,410.53,61,902.09s-54.59-5-58-58.59"/><path d="M715,126.82l56.1,59.55,127.73-126s7.77-21.58,0-27.62c0,0-19.85-38.84-54.37-31.93Z"/></g></g></svg>