<svg xmlns="http://www.w3.org/2000/svg" viewBox="0 0 899.29 931.64"><title>Asset 5</title><g id="Layer_2" data-name="Layer 2"><g id="pro"><path d="M220.67,626.77l82.12-82.12c-3.08.18-6.14.51-9.24.51q-70.42,0-120.72-51-51-50.3-51-120.72,0-69.74,51-120.72,49.63-50.3,120.72-50.3,69.75,0,131.46,60.36l66.4-63.71q-89.88-88.53-197.85-88.53-108.65,0-186.44,77.8-76.46,76.45-76.46,185.1,0,109.33,76.46,185.78Q157.1,609.25,220.67,626.77Z"/><path d="M687.79,647.28q-18.78-3.35-36.22-7t-36.21-7.71q-18.79-4-36.89-7.71t-36.22-7.71q-66.4-14.74-66.4-57.68,0-29.51,32.19-46.95,29.5-14.74,68.41-14.75,40.9,0,69.08,15.43,32.2,17.45,32.19,63h91.21q0-89.86-65.05-132.79-55.68-37.55-127.43-37.56a252,252,0,0,0-27.79,1.65l-17.74,17.74L0,843.5c3.42,53.55,58,58.59,58,58.59L384.66,575.43q7.07,83.46,89.85,114.76,18.11,4,37.56,8.72t38.23,8l-.67-.67q18.77,4,37.22,8t36.55,7.38V721q65.72,15.43,65.73,55.67,0,32.86-36.22,49.63-30.18,14.08-76.46,14.08-44.94,0-76.46-14.75l.67.67q-36.9-17.44-36.89-65.73H372.57q0,92.55,71.09,135.48Q500,931.63,576.46,931.64q75.78,0,133.47-34.88Q781,851.84,781,776.72,781,682.15,687.79,647.28Z"/><path d="M895.84,32.75S876-6.08,841.47.82L712,126.82l56.1,59.55,127.73-126S903.6,38.8,895.84,32.75Z"/></g></g></svg>